# xmcd CD database file generated by Grip 3.2.0
# 
# Track frame offsets:
#       182
#       17652
#       36835
#       52757
#       65420
#       81565
#       107120
#       119442
#       136482
#       156180
#       172762
# 
# Disc length: 2535 seconds
# 
# Revision: 3
# Processed by: cddbd v1.5.1PL0 Copyright (c) Steve Scherf et al.
# Submitted via: Grip 3.2.0
# 
DISCID=8c09e50b
DTITLE=k.d. lang - Invincible Summer
DYEAR=2000
DGENRE=Pop
TTITLE0=The Consequences Of Falling
TTITLE1=Summerfling
TTITLE2=Suddenly
TTITLE3=It's Happening With You
TTITLE4=Extraordinary Thing
TTITLE5=Love's Great Ocean
TTITLE6=Simple
TTITLE7=What Better Said
TTITLE8=When We Collide
TTITLE9=Curiosity
TTITLE10=Only Love
EXTD=YEAR: 2000
EXTT0=
EXTT1=
EXTT2=
EXTT3=
EXTT4=
EXTT5=
EXTT6=
EXTT7=
EXTT8=
EXTT9=
EXTT10=
PLAYORDER=
